<svg xmlns="http://www.w3.org/2000/svg" enable-background="new 0 0 512 512" viewBox="0 0 512 512" id="book"><g fill="#000000" class="color000000 svgShape"><path fill="#f47579" d="M36.5,175.4v273.3c0,3.7,3,6.7,6.7,6.7h174.5l10.6,21.2h55.5l10.6-21.2h174.5c3.7,0,6.7-3,6.7-6.7V175.4
		c0-3.7-3-6.7-6.7-6.7H43.2C39.5,168.7,36.5,171.7,36.5,175.4z" class="colorff7d4a svgShape"></path><polygon fill="#f2f2f2" points="245.7 448.3 235.1 427.1 64.8 427.1 64.8 147.5 447.2 147.5 447.2 427.1 276.9 427.1 266.3 448.3" class="colorf2f2f2 svgShape"></polygon><g fill="#000000" class="color000000 svgShape"><path fill="#ff5257" d="M260.4,303.1l24.8-42.8c48.9-12.9,85-57.5,85-110.5c0-63.1-51.2-114.3-114.3-114.3S141.7,86.6,141.7,149.7
			c0,53,36.1,97.6,85,110.5l24.7,42.8C253.4,306.7,258.5,306.7,260.4,303.1z" class="colorffcf52 svgShape"></path><g fill="#000000" class="color000000 svgShape"><path fill="#f2f2f2" d="M285.5 90.4c-7.6-5.4-17.9-8.1-30.5-8.1-16.2 0-28.2 3.9-35.8 11.6-2.2 2.3-4.1 4.7-5.9 7.4-2.7 4.3-3 9.9-.8 14.6 2.2 4.7 6.4 7.8 11.2 8.5.5.1 1.1.1 1.7.1 5.3 0 10.3-3.3 12.9-8.6.9-1.7 1.8-3.3 3-4.4 3.5-3.7 7.9-5.5 13.1-5.5 4.9 0 8.7 1.3 11.3 3.9 2.6 2.6 3.9 6.2 3.9 10.5 0 4.6-2.8 9.2-8.6 14.1-9.1 7.9-15.1 13.6-17.6 16.6-2.4 2.9-4.2 6.2-5.4 9.7 0 .1-.1.2-.1.4-.9 3.5-.1 7.1 2.1 9.9 2.1 2.7 5.2 4.2 8.5 4.2h7.7c4.6 0 8.6-2.9 10-7.3.3-1.1.9-2.2 1.3-3.1 1.8-3.6 6-7.9 12.5-13.4 8.6-7.1 14.2-13 16.9-17.7 2.6-4.6 3.9-9.3 3.9-14.2C300.9 107.2 295.8 97.8 285.5 90.4zM252.9 184.5h-4.4c-7.3 0-13.2 6.3-13.2 14.1 0 7.8 6 14.1 13.2 14.1h4.4c7.3 0 13.2-6.3 13.2-14.1C266.1 190.8 260.1 184.5 252.9 184.5z" class="colorf2f2f2 svgShape"></path></g></g></g></svg>