<svg xmlns="http://www.w3.org/2000/svg" data-name="Layer 1" viewBox="0 0 64 64" id="GoogleClassroom"><circle cx="23" cy="26" r="4" fill="#f47579" class="color3b3c3d svgShape"></circle><path fill="#f47579" d="M37,42a1,1,0,0,1-1-1V34.8027A2.8059,2.8059,0,0,0,33.1973,32H30.8027A2.8059,2.8059,0,0,0,28,34.8027V41a1,1,0,0,1-1,1H18a1,1,0,0,1-1-1V36.8027A4.8079,4.8079,0,0,1,21.8027,32H23a1,1,0,0,1,0,2H21.8027A2.8059,2.8059,0,0,0,19,36.8027V40h7V34.8027A4.8079,4.8079,0,0,1,30.8027,30h2.3946A4.8079,4.8079,0,0,1,38,34.8027V41A1,1,0,0,1,37,42Z" class="color3b3c3d svgShape"></path><path fill="#f47579" d="M46 42H31a1 1 0 0 1 0-2H45V36.8027A2.8059 2.8059 0 0 0 42.1973 34H41a1 1 0 0 1 0-2h1.1973A4.8079 4.8079 0 0 1 47 36.8027V41A1 1 0 0 1 46 42zM48 49H43a1 1 0 0 1 0-2h5a1 1 0 0 1 0 2z" class="color3b3c3d svgShape"></path><path fill="#f47579" d="M54,8H10a2.0059,2.0059,0,0,0-2,2V54a2.0059,2.0059,0,0,0,2,2H54a2.0059,2.0059,0,0,0,2-2V10A2.0059,2.0059,0,0,0,54,8ZM51,51H13V13H51Z" class="color3b3c3d svgShape"></path><path fill="#f47579" d="M37,42a1,1,0,0,1-1-1V34.8027A2.8059,2.8059,0,0,0,33.1973,32H30.8027A2.8059,2.8059,0,0,0,28,34.8027V41a1,1,0,0,1-1,1H18a1,1,0,0,1-1-1V36.8027A4.8079,4.8079,0,0,1,21.8027,32H23a1,1,0,0,1,0,2H21.8027A2.8059,2.8059,0,0,0,19,36.8027V40h7V34.8027A4.8079,4.8079,0,0,1,30.8027,30h2.3946A4.8079,4.8079,0,0,1,38,34.8027V41A1,1,0,0,1,37,42Z" class="color3b3c3d svgShape"></path><path fill="#f47579" d="M46,42H31a1,1,0,0,1,0-2H45V36.8027A2.8059,2.8059,0,0,0,42.1973,34H41a1,1,0,0,1,0-2h1.1973A4.8079,4.8079,0,0,1,47,36.8027V41A1,1,0,0,1,46,42Z" class="color3b3c3d svgShape"></path><circle cx="32" cy="24" r="4" fill="#f47579" class="color3b3c3d svgShape"></circle><circle cx="41" cy="26" r="4" fill="#f47579" class="color3b3c3d svgShape"></circle><path fill="#f47579" d="M48,49H43a1,1,0,0,1,0-2h5a1,1,0,0,1,0,2Z" class="color3b3c3d svgShape"></path></svg>