<svg xmlns="http://www.w3.org/2000/svg" enable-background="new 0 0 512 512" viewBox="0 0 512 512" id="onlinequiz"><path fill="#de8b8e" d="M466.827,96.746H198.748c0.355,3.286,0.543,6.621,0.543,10c0,6.901-0.766,13.625-2.207,20.098h214.981
		c10.443,0,18.94,8.497,18.94,18.941v175.901c0,10.443-8.497,18.94-18.94,18.94H182.438c-10.444,0-18.941-8.497-18.941-18.94
		V179.742c-15.653,12.177-35.307,19.446-56.629,19.464c-0.026,0-0.052,0.004-0.078,0.004c-0.026,0-0.051-0.004-0.077-0.004
		c-3.353-0.003-6.664-0.189-9.925-0.541v162.06c0-5.522,4.477-10,10-10h380.926c5.522,0,10,4.478,10,10V127.633
		C497.714,110.602,483.858,96.746,466.827,96.746z" class="color8bdec5 svgShape"></path><path fill="#936b6c" d="M246.025,413.055v64.659H214.8c-5.523,0-10,4.478-10,10s4.477,10,10,10h164.903c5.522,0,10-4.478,10-10
		s-4.478-10-10-10h-31.227v-64.659H246.025z" class="color726b93 svgShape"></path><path fill="#c48f91" d="M487.714,350.725H106.788c-5.523,0-10,4.478-10,10v21.443c0,17.031,13.856,30.887,30.887,30.887h118.35
		h102.451h118.351c17.031,0,30.887-13.855,30.887-30.887v-21.443C497.714,355.202,493.236,350.725,487.714,350.725z" class="color988fc4 svgShape"></path><rect width="21.302" height="21.281" x="224.758" y="264.325" fill="#fcf5f5" class="colorf5f5fc svgShape"></rect><path fill="#fcf5f5" d="M163.498,179.742v141.945c0,10.443,8.497,18.94,18.941,18.94h229.626c10.443,0,18.94-8.497,18.94-18.94
		V145.785c0-10.444-8.497-18.941-18.94-18.941H197.084C192.335,148.174,180.196,166.752,163.498,179.742z M235.359,216.013
		c-1.953,1.952-4.511,2.927-7.069,2.927s-5.117-0.976-7.069-2.927l-18.712-18.702c-3.906-3.904-3.908-10.236-0.003-14.142
		c3.904-3.906,10.235-3.909,14.142-0.003l11.643,11.636l25.817-25.804c3.906-3.905,10.237-3.903,14.143,0.003
		c3.904,3.906,3.902,10.238-0.004,14.142L235.359,216.013z M266.061,258.449v33.033c0,7.788-6.336,14.124-14.124,14.124h-33.054
		c-7.788,0-14.124-6.336-14.124-14.124v-33.033c0-7.788,6.336-14.124,14.124-14.124h33.054
		C259.725,244.325,266.061,250.661,266.061,258.449z M379.744,202.505h-82.477c-5.522,0-10-4.477-10-10s4.478-10,10-10h82.477
		c5.522,0,10,4.477,10,10S385.267,202.505,379.744,202.505z M389.776,274.966c0,5.522-4.478,10-10,10h-82.478
		c-5.522,0-10-4.478-10-10s4.478-10,10-10h82.478C385.299,264.966,389.776,269.443,389.776,274.966z" class="colorf5f5fc svgShape"></path><path fill="#f47579" d="M379.744 182.505h-82.477c-5.522 0-10 4.477-10 10s4.478 10 10 10h82.477c5.522 0 10-4.477 10-10S385.267 182.505 379.744 182.505zM218.882 244.325c-7.788 0-14.124 6.336-14.124 14.124v33.033c0 7.788 6.336 14.124 14.124 14.124h33.054c7.788 0 14.124-6.336 14.124-14.124v-33.033c0-7.788-6.336-14.124-14.124-14.124H218.882zM246.061 285.606h-21.302v-21.281h21.302V285.606zM297.299 264.966c-5.522 0-10 4.478-10 10s4.478 10 10 10h82.478c5.522 0 10-4.478 10-10s-4.478-10-10-10H297.299zM268.25 169.001c-3.905-3.906-10.236-3.909-14.143-.003l-25.817 25.804-11.643-11.636c-3.907-3.905-10.238-3.903-14.142.003-3.904 3.906-3.903 10.238.003 14.142l18.712 18.702c1.953 1.952 4.511 2.927 7.069 2.927s5.117-.976 7.069-2.927l32.887-32.87C272.152 179.239 272.154 172.907 268.25 169.001z" class="colorde8bae svgShape"></path><path fill="#fcc3c5" d="M96.79,189.21v-25c0-5.523,4.477-10,10-10s10,4.477,10,10v25c0,5.497-4.435,9.954-9.922,9.996
		c21.322-0.018,40.976-7.287,56.629-19.464c16.698-12.99,28.837-31.567,33.586-52.898c1.441-6.473,2.207-13.197,2.207-20.098
		c0-3.379-0.188-6.714-0.543-10c-5.004-46.297-44.334-82.46-91.96-82.46c-51.006,0-92.502,41.478-92.502,92.46
		c0,47.606,36.183,86.919,82.502,91.919c3.262,0.352,6.572,0.538,9.925,0.541C101.226,199.164,96.79,194.707,96.79,189.21z
		 M112.903,115.462c-1.953,1.952-4.511,2.927-7.069,2.927s-5.117-0.976-7.069-2.927L78.181,94.89
		c-3.906-3.904-3.908-10.236-0.003-14.142c3.904-3.906,10.235-3.909,14.142-0.003l13.514,13.506l29.106-29.091
		c3.907-3.905,10.238-3.902,14.142,0.003c3.904,3.906,3.903,10.238-0.003,14.142L112.903,115.462z M199.25,106.75
		c0,5.523-4.477,10-10,10h-25c-5.523,0-10-4.477-10-10s4.477-10,10-10h25C194.773,96.75,199.25,101.227,199.25,106.75z
		 M106.79,14.29c5.523,0,10,4.477,10,10v25c0,5.523-4.477,10-10,10s-10-4.477-10-10v-25C96.79,18.767,101.267,14.29,106.79,14.29z
		 M14.33,106.75c0-5.523,4.477-10,10-10h25c5.523,0,10,4.477,10,10s-4.477,10-10,10h-25C18.807,116.75,14.33,112.273,14.33,106.75z" class="colorfcecc3 svgShape"></path><path fill="#f47579" d="M116.79 189.21v-25c0-5.523-4.477-10-10-10s-10 4.477-10 10v25c0 5.497 4.436 9.954 9.923 9.996.026 0 .051.004.077.004.026 0 .052-.004.078-.004C112.355 199.164 116.79 194.707 116.79 189.21zM96.79 49.29c0 5.523 4.477 10 10 10s10-4.477 10-10v-25c0-5.523-4.477-10-10-10s-10 4.477-10 10V49.29zM49.33 116.75c5.523 0 10-4.477 10-10s-4.477-10-10-10h-25c-5.523 0-10 4.477-10 10s4.477 10 10 10H49.33zM189.25 96.75h-25c-5.523 0-10 4.477-10 10s4.477 10 10 10h25c5.523 0 10-4.477 10-10S194.773 96.75 189.25 96.75zM149.078 79.306c3.906-3.904 3.908-10.236.003-14.142-3.904-3.906-10.235-3.908-14.142-.003l-29.106 29.091L92.32 80.745c-3.907-3.905-10.238-3.903-14.142.003-3.904 3.906-3.903 10.238.003 14.142l20.583 20.572c1.953 1.952 4.511 2.927 7.069 2.927s5.117-.976 7.069-2.927L149.078 79.306z" class="colorde8bae svgShape"></path></svg>