<svg xmlns="http://www.w3.org/2000/svg" viewBox="0 0 8.467 8.467" id="Result"><g transform="translate(0 -288.533)" fill="#f47579" class="color000000 svgShape"><path d="M 5 2 L 5 30 L 19.054688 30 A 3.3066509 3.3066509 0 0 0 21.699219 28.681641 L 27 21.630859 L 27 2 L 5 2 z M 6 3 L 26 3 L 26 21.150391 L 18.994141 24.386719 A 2.3066516 2.3066516 0 0 1 19.212891 24.394531 A 2.3068443 2.3068443 0 0 1 19.224609 24.394531 A 2.3066516 2.3066516 0 0 1 19.240234 24.396484 A 2.3066516 2.3066516 0 0 1 19.169922 28.994141 A 2.3068443 2.3068443 0 0 1 19.150391 28.996094 A 2.3066516 2.3066516 0 0 1 19.054688 29 L 6 29 L 6 3 z M 24.900391 22.759766 L 22.322266 26.185547 A 3.306651 3.306651 0 0 0 22.255859 25.863281 A 3.3066512 3.3066512 0 0 0 22.255859 25.861328 A 3.306651 3.306651 0 0 0 22.232422 25.787109 A 3.306651 3.306651 0 0 0 22.027344 25.244141 A 3.3066512 3.3066512 0 0 0 22.025391 25.242188 A 3.306651 3.306651 0 0 0 21.867188 24.953125 A 3.306651 3.306651 0 0 0 21.464844 24.429688 A 3.306651 3.306651 0 0 0 21.410156 24.373047 L 24.900391 22.759766 z " transform="translate(0 288.533) scale(.26458)" fill="#f47579" class="color000000 svgShape"></path><path d="m 3.6953125,290.51562 a 0.13230489,0.13230489 0 0 0 -0.1054687,0.0664 l -0.703125,1.17188 -0.4140626,-0.44727 a 0.13230489,0.13230489 0 1 0 -0.1933593,0.17969 L 2.8125,292.0625 a 0.13230489,0.13230489 0 0 0 0.2109375,-0.0215 l 0.7949219,-1.32227 a 0.13230489,0.13230489 0 0 0 -0.1230469,-0.20313 z" color="#000" font-family="sans-serif" font-weight="400" overflow="visible" style="line-height:normal;font-variant-ligatures:normal;font-variant-position:normal;font-variant-caps:normal;font-variant-numeric:normal;font-variant-alternates:normal;font-feature-settings:normal;text-indent:0;text-align:start;text-decoration-line:none;text-decoration-style:solid;text-decoration-color:#000;text-transform:none;text-orientation:mixed;shape-padding:0;isolation:auto;mix-blend-mode:normal" fill="#f47579" class="color000000 svgShape"></path><path d="M 23.923828 3.3652344 A 0.50004998 0.50004998 0 0 0 23.453125 3.8457031 L 23.40625 4.6738281 L 22.587891 4.6875 A 0.50004998 0.50004998 0 1 0 22.603516 5.6835938 L 23.351562 5.671875 L 23.296875 6.6367188 A 0.50004998 0.50004998 0 1 0 24.292969 6.6953125 L 24.351562 5.6542969 L 25.261719 5.6386719 A 0.50004998 0.50004998 0 1 0 25.246094 4.6425781 L 24.40625 4.65625 L 24.449219 3.9042969 A 0.50004998 0.50004998 0 0 0 23.923828 3.3652344 z M 20.841797 3.8652344 A 0.50004998 0.50004998 0 0 0 20.787109 3.8671875 A 0.50004998 0.50004998 0 0 0 20.425781 4.0820312 C 20.425781 4.0820312 20.17484 4.4518252 19.886719 4.9082031 C 19.598598 5.3646189 19.277593 5.8784335 19.119141 6.3105469 C 19.053626 6.4893185 18.564858 7.3461617 18.123047 8.0390625 C 17.681236 8.7319255 17.265625 9.3378906 17.265625 9.3378906 A 0.50262504 0.50262504 0 1 0 18.099609 9.8984375 C 18.099609 9.8984375 18.484069 9.3174094 18.880859 8.6992188 C 18.971641 8.6840825 19.564856 8.5852789 20.255859 8.4511719 C 20.62685 8.3793609 20.996222 8.3022798 21.289062 8.2304688 C 21.320223 8.2224253 21.341634 8.2163038 21.371094 8.2089844 C 21.680904 9.0306597 22.069714 9.7940303 22.654297 10.251953 A 0.50004998 0.50004998 0 1 0 23.267578 9.4628906 C 22.830459 9.1204654 22.234628 7.7871325 21.880859 6.5761719 C 21.527092 5.3651735 21.333984 4.28125 21.333984 4.28125 A 0.50004998 0.50004998 0 0 0 20.841797 3.8652344 z M 20.625 5.625 C 20.721197 6.0701905 20.729513 6.2056046 20.919922 6.8574219 C 20.959153 6.9917124 21.005241 7.1291213 21.046875 7.265625 C 20.78552 7.3295821 20.425076 7.4008311 20.064453 7.4707031 C 19.830379 7.5160559 19.806746 7.5181914 19.597656 7.5566406 C 19.797851 7.2197695 19.964632 6.9091314 20.056641 6.6582031 C 20.130485 6.4567543 20.388014 6.0144047 20.625 5.625 z " color="#000" font-family="sans-serif" font-weight="400" overflow="visible" transform="translate(0 288.533) scale(.26458)" style="line-height:normal;font-variant-ligatures:normal;font-variant-position:normal;font-variant-caps:normal;font-variant-numeric:normal;font-variant-alternates:normal;font-feature-settings:normal;text-indent:0;text-align:start;text-decoration-line:none;text-decoration-style:solid;text-decoration-color:#000;text-transform:none;text-orientation:mixed;shape-padding:0;isolation:auto;mix-blend-mode:normal" fill="#f47579" class="color000000 svgShape"></path><path d="M3.6953125 292.10352a.13230489.13230489 0 0 0-.1054687.0664l-.703125 1.17188-.4140626-.44727a.13230489.13230489 0 1 0-.1933593.17969L2.8125 293.65039a.13230489.13230489 0 0 0 .2109375-.0215l.7949219-1.32422a.13230489.13230489 0 0 0-.1230469-.20117zM3.6953125 293.69141a.13230489.13230489 0 0 0-.1054687.0664l-.703125 1.17188-.4140626-.44727a.13230489.13230489 0 1 0-.1933593.17969L2.8125 295.23828a.13230489.13230489 0 0 0 .2109375-.0215l.7949219-1.32422a.13230489.13230489 0 0 0-.1230469-.20117z" color="#000" font-family="sans-serif" font-weight="400" overflow="visible" style="line-height:normal;font-variant-ligatures:normal;font-variant-position:normal;font-variant-caps:normal;font-variant-numeric:normal;font-variant-alternates:normal;font-feature-settings:normal;text-indent:0;text-align:start;text-decoration-line:none;text-decoration-style:solid;text-decoration-color:#000;text-transform:none;text-orientation:mixed;shape-padding:0;isolation:auto;mix-blend-mode:normal" fill="#f47579" class="color000000 svgShape"></path></g></svg>