<svg xmlns="http://www.w3.org/2000/svg" enable-background="new 0 0 238.216 237.182" viewBox="0 0 238.216 237.182" id="business-management-student"><path d="M150.316,61.684c0,11.15,40.387,11.15,40.387,0c0-7.175-3.753-13.46-9.392-17.042c-2.763,3.227-6.858,5.282-11.429,5.282
		c-4.319,0-8.209-1.841-10.956-4.767C153.724,48.811,150.316,54.845,150.316,61.684z"></path><circle cx="169.884" cy="34.871" r="13.324"></circle><path d="M122.368,147.474c-3.155,0-6.083-0.98-8.505-2.646c-1.942,3.759-5.519,6.52-9.77,7.343
		c-0.823,2.201-1.295,4.574-1.295,7.062c0,11.152,40.388,11.152,40.388,0c0-7.175-3.752-13.459-9.391-17.041
		C131.033,145.419,126.94,147.474,122.368,147.474z"></path><path d="M115.407 139.245c-.082 1.391-.367 2.725-.823 3.974 2.19 1.583 4.874 2.527 7.784 2.527 7.359 0 13.326-5.965 13.326-13.324 0-7.359-5.967-13.324-13.326-13.324-2.306 0-4.474.586-6.365 1.617C115.983 126.542 115.784 132.76 115.407 139.245zM150.316 159.233c0 11.152 40.387 11.152 40.387 0 0-7.175-3.753-13.46-9.392-17.042-2.763 3.227-6.858 5.282-11.429 5.282-4.319 0-8.209-1.841-10.956-4.766C153.724 146.36 150.316 152.394 150.316 159.233z"></path><circle cx="169.884" cy="132.422" r="13.324"></circle><path d="M217.398,147.474c-4.32,0-8.21-1.841-10.957-4.767c-5.202,3.653-8.611,9.687-8.611,16.526c0,11.152,40.387,11.152,40.387,0
		c0-7.175-3.752-13.459-9.391-17.041C226.062,145.419,221.968,147.474,217.398,147.474z"></path><circle cx="217.399" cy="132.422" r="13.324"></circle><polygon points="123.453 94.442 169.616 94.442 169.616 113.713 171.617 113.713 171.617 94.442 217.563 94.442 217.563 115.873 219.564 115.873 219.562 92.443 171.617 92.443 171.617 75.413 169.616 75.413 169.616 92.443 121.454 92.443 121.454 115.873 123.453 115.873"></polygon><path d="M30.954,147.104v-20.677l2,0.842v28.706v68.841c0,6.831,5.538,12.364,12.365,12.364c5.281,0,9.778-3.318,11.549-7.981
		c0.518-1.364,0.814-2.837,0.814-4.383v-90.27h4.636v90.27c0,6.831,5.537,12.364,12.365,12.364c6.826,0,12.363-5.533,12.363-12.364
		v-98v-18.938V74.816c3.467,7.1,6.999,20.703,6.965,44.919c0,5.515-0.178,11.571-0.568,18.222c-0.26,4.41,3.105,8.197,7.518,8.455
		c0.16,0.01,0.318,0.014,0.475,0.014c4.205,0,7.731-3.28,7.981-7.532c0.406-6.935,0.594-13.302,0.594-19.158
		c-0.012-22.658-2.77-37.665-6.878-48.045c-4.057-10.339-9.855-16.175-15.234-18.842c-3.416-1.722-6.414-2.11-8.221-2.132
		c-0.119-0.006-0.238-0.018-0.359-0.018H52.76c0.005,0.219,0.008,0.476,0.009,0.806c-0.016,3.917-0.447,15.505-5.408,28.774
		l-5.538-2.332c4.511-12.226,4.959-22.99,4.946-26.442c0-0.36-0.004-0.62-0.009-0.806h-6.077c-0.479,0-0.945,0.05-1.398,0.133v0.009
		c-3.088,0.348-5.766,1.558-8.109,3.105c-2.766,1.85-5.152,4.261-7.215,7.11c-4.088,5.686-6.924,13.245-6.939,21.841
		c-0.01,6.436,1.672,13.41,5.572,20.1c3.891,6.701,9.926,13.073,18.375,18.723c1.365,0.914,2.912,1.352,4.441,1.352
		c2.58,0,5.113-1.246,6.656-3.553c2.457-3.672,1.473-8.64-2.201-11.098c-6.776-4.541-10.939-9.168-13.439-13.465
		c-2.49-4.307-3.395-8.326-3.404-12.059c-0.004-3.484,0.836-6.736,2.119-9.428c1.264-2.688,3.017-4.777,4.392-5.838
		c0.426-0.341,0.79-0.557,1.067-0.698l0.185,2.258c-1.045,0.806-2.648,2.609-3.833,5.128c-1.269,2.659-1.934,5.62-1.932,8.576
		c0.007,1.967,0.288,3.881,0.843,5.773l3.568-8.474l30.989,13.05L53.77,132.782l-30.986-13.051l3.46-8.218
		c-2.066-2.406-3.87-4.911-5.383-7.513c-3.832-6.576-5.852-13.876-5.839-21.106c0.012-8.29,2.611-16.462,7.313-23.005
		c2.271-3.14,4.871-5.695,7.729-7.606c2.847-1.881,6.135-3.07,9.056-3.463l0.001,0.017c0.51-0.083,1.029-0.137,1.563-0.137h14.63
		c-5.286-1.129-14.397-2.855-20.276-2.772c-1.518,0.021-2.825,0.161-3.789,0.465c-6.332,2-24,14-30.5,49.5
		C-4.14,122.584,15.989,143.479,30.954,147.104z"></path><circle cx="60.001" cy="22.5" r="22.5"></circle><rect width="2.325" height="22.743" x="50.687" y="82.661" transform="rotate(-67.176 51.846 94.03)"></rect><rect width="2.325" height="22.744" x="48.881" y="86.947" transform="rotate(-67.184 50.04 98.314)"></rect></svg>